# xmcd CD database file
#
# Track frame offsets:
#	150
#	20482
#	40527
#	60787
#
# Disc length: 1149 seconds
#
# Revision: 0
# Processed by: cddbd v1.5PL3 Copyright (c) Steve Scherf et al.
# Submitted via: CDex 1.40Release
#
DISCID=20047b04
DTITLE=FAR EAST RECORDING - 殺人の時効は15年
DYEAR=1997
DGENRE=不明
TTITLE0=殺人の時効は15年
TTITLE1=15 YEARS(Ver.1997/8/19)
TTITLE2=殺人の時効は15年(ragga remix)
TTITLE3=15 YEARS(Dredd info.)
EXTD=YEAR: 1997
EXTT0=
EXTT1=
EXTT2=
EXTT3=
PLAYORDER=
